<?xml version="1.0" encoding="utf-8"?>
<!-- Generator: Adobe Illustrator 24.0.2, SVG Export Plug-In . SVG Version: 6.00 Build 0)  -->
<svg version="1.1" id="Capa_1" xmlns="http://www.w3.org/2000/svg" xmlns:xlink="http://www.w3.org/1999/xlink" x="0px" y="0px"
	 viewBox="0 0 300 300" style="enable-background:new 0 0 300 300;" xml:space="preserve">
<style type="text/css">
	.st0{fill:#FCFCFC;}
</style>
<path class="st0" d="M150,0c-40.8,0-45.9,0.2-61.8,0.9c-16,0.8-26.9,3.3-36.4,7c-9.9,3.9-18.3,9-26.6,17.3
	c-8.4,8.3-13.5,16.7-17.3,26.6c-3.7,9.6-6.2,20.4-7,36.4c-0.7,16-0.9,21-0.9,61.8s0.2,45.9,0.9,61.8c0.8,16,3.3,26.9,7,36.4
	c3.9,9.9,9,18.3,17.3,26.6c8.3,8.4,16.7,13.5,26.6,17.3c9.6,3.7,20.4,6.2,36.4,7c16,0.7,21,0.9,61.8,0.9s45.9-0.2,61.8-0.9
	c16-0.8,26.9-3.3,36.4-7c9.9-3.9,18.3-9,26.6-17.3c8.4-8.3,13.5-16.7,17.3-26.6c3.7-9.6,6.2-20.4,7-36.4c0.7-16,0.9-21,0.9-61.8
	s-0.2-45.9-0.9-61.8c-0.8-16-3.3-26.9-7-36.4c-3.9-9.9-9-18.3-17.3-26.6c-8.3-8.4-16.7-13.5-26.6-17.3c-9.6-3.7-20.4-6.2-36.4-7
	C195.8,0.2,190.8,0,150,0z M150,27c40,0,44.8,0.2,60.7,0.9c14.6,0.7,22.5,3.1,27.8,5.2c7,2.7,12,6,17.3,11.2
	c5.2,5.2,8.4,10.2,11.2,17.2c2.1,5.3,4.5,13.2,5.2,27.8c0.7,15.8,0.9,20.6,0.9,60.7s-0.2,44.8-0.9,60.7c-0.8,14.6-3.2,22.5-5.3,27.8
	c-2.8,7-6,12-11.2,17.3c-5.3,5.2-10.3,8.4-17.3,11.2c-5.2,2.1-13.3,4.5-27.9,5.2c-15.9,0.7-20.6,0.9-60.7,0.9s-44.8-0.2-60.8-0.9
	c-14.6-0.8-22.7-3.2-27.9-5.3c-7.1-2.8-12-6-17.2-11.2c-5.3-5.3-8.6-10.3-11.2-17.3c-2.1-5.2-4.5-13.3-5.3-27.9
	c-0.5-15.7-0.8-20.6-0.8-60.6c0-39.9,0.3-44.8,0.8-60.7c0.8-14.7,3.2-22.7,5.3-27.9c2.6-7.1,6-12,11.2-17.3
	c5.2-5.2,10.1-8.6,17.2-11.2c5.3-2.1,13.1-4.5,27.8-5.2c15.9-0.6,20.6-0.8,60.7-0.8L150,27z M150,73c-42.6,0-77,34.5-77,77
	c0,42.6,34.5,77,77,77c42.6,0,77-34.5,77-77C227,107.4,192.5,73,150,73z M150,200c-27.6,0-50-22.4-50-50s22.4-50,50-50
	s50,22.4,50,50S177.6,200,150,200z M248.1,69.9c0,10-8.1,18-18,18c-10,0-18-8.1-18-18c0-9.9,8.1-18,18-18
	C240,52,248.1,60,248.1,69.9z"/>
</svg>
